<svg xmlns="http://www.w3.org/2000/svg" viewBox="380.16 346.61 62.48 26.14">
  <path d="M 1684.49 736.473 L 1679.054 736.473 L 1679.054 761.673 L 1684.49 761.673 L 1684.49 753.285 L 1685.642 751.989 L 1693.382 761.673 L 1700.186 761.673 L 1689.098 748.353 L 1699.466 736.473 L 1692.986 736.473 L 1684.49 746.445 Z M 1699.137 749.073 C 1699.137 756.561 1704.645 762.141 1712.133 762.141 C 1714.149 762.141 1716.417 761.637 1718.613 760.377 L 1718.613 754.653 C 1716.597 756.057 1714.653 756.813 1712.349 756.813 C 1707.885 756.813 1704.717 753.357 1704.717 749.073 C 1704.717 744.717 1707.957 741.297 1712.349 741.297 C 1714.689 741.297 1716.669 742.089 1718.577 743.529 L 1718.577 737.805 C 1716.561 736.617 1714.365 736.005 1712.169 736.005 C 1704.861 736.005 1699.137 741.693 1699.137 749.073 Z M 1722.814 761.673 L 1732.57 761.673 C 1738.078 761.673 1741.534 758.901 1741.534 754.293 C 1741.534 751.377 1739.95 749.217 1737.07 748.209 C 1738.906 747.237 1740.022 745.545 1740.022 743.277 C 1740.022 738.993 1736.674 736.473 1732.03 736.473 L 1722.814 736.473 Z M 1728.106 757.137 L 1728.106 750.873 L 1732.246 750.873 C 1734.55 750.873 1736.062 751.989 1736.062 754.005 C 1736.062 756.057 1734.55 757.137 1732.246 757.137 Z M 1728.106 746.517 L 1728.106 740.973 L 1731.49 740.973 C 1733.362 740.973 1734.73 741.909 1734.73 743.745 C 1734.73 745.581 1733.362 746.517 1731.49 746.517 Z" transform="matrix(1, 0, 0, 1, -1298.895669, -389.395672)" style="fill: rgb(255, 255, 255);"/>
</svg>